<svg width="158" height="155" viewBox="0 0 158 155" fill="none" xmlns="http://www.w3.org/2000/svg">
<g clip-path="url(#clip0_1_14)">
<path d="M48.68 37.984C47.656 37.5573 46.5253 37.216 45.288 36.96C44.0933 36.704 42.5147 36.576 40.552 36.576C38.376 36.576 36.648 37.1307 35.368 38.24C34.088 39.3067 33.448 40.5227 33.448 41.888C33.448 43.2533 34.0453 44.4907 35.24 45.6C36.4347 46.7093 38.76 47.6693 42.216 48.48C45.288 49.1627 47.656 50.0373 49.32 51.104C51.0267 52.1707 52.2213 53.3867 52.904 54.752C53.5867 56.0747 53.928 57.5467 53.928 59.168C53.928 60.7467 53.5227 62.2613 52.712 63.712C51.944 65.12 50.664 66.2933 48.872 67.232C47.1227 68.128 44.776 68.576 41.832 68.576C37.6507 68.576 33.7893 67.5947 30.248 65.632C29.6933 65.2907 29.416 64.8213 29.416 64.224C29.416 63.84 29.5653 63.4773 29.864 63.136C30.1627 62.7947 30.5467 62.624 31.016 62.624C31.272 62.624 31.528 62.688 31.784 62.816C34.8133 64.5227 38.1627 65.376 41.832 65.376C44.7333 65.376 46.9307 64.7787 48.424 63.584C49.96 62.3467 50.728 60.8747 50.728 59.168C50.728 57.376 50.0027 55.8827 48.552 54.688C47.144 53.4933 44.8187 52.4907 41.576 51.68C38.5467 50.912 36.2 50.0373 34.536 49.056C32.9147 48.0747 31.784 46.9653 31.144 45.728C30.5467 44.4907 30.248 43.1253 30.248 41.632C30.248 40.2667 30.632 38.9653 31.4 37.728C32.2107 36.448 33.384 35.4027 34.92 34.592C36.456 33.7813 38.3333 33.376 40.552 33.376C42.8987 33.376 44.776 33.568 46.184 33.952C47.6347 34.2933 49.1493 34.784 50.728 35.424C51.4107 35.68 51.752 36.1707 51.752 36.896C51.752 37.3227 51.5813 37.7067 51.24 38.048C50.9413 38.3467 50.5787 38.496 50.152 38.496C50.0667 38.496 49.9387 38.4747 49.768 38.432C49.5973 38.3467 49.2347 38.1973 48.68 37.984ZM67.329 54.304C67.329 57.8453 68.3317 60.576 70.337 62.496C72.385 64.416 75.009 65.376 78.209 65.376C81.7503 65.376 84.481 64.416 86.401 62.496C88.3637 60.5333 89.345 57.7387 89.345 54.112V35.36C89.345 34.8907 89.4943 34.5067 89.793 34.208C90.1343 33.9093 90.5183 33.76 90.945 33.76C91.4143 33.76 91.7983 33.9093 92.097 34.208C92.3957 34.5067 92.545 34.8907 92.545 35.36V54.112C92.545 58.7627 91.2863 62.3467 88.769 64.864C86.2943 67.3387 82.7743 68.576 78.209 68.576C74.0703 68.576 70.6783 67.3387 68.033 64.864C65.4303 62.3893 64.129 58.8693 64.129 54.304V35.36C64.129 34.8907 64.2783 34.5067 64.577 34.208C64.9183 33.9093 65.3023 33.76 65.729 33.76C66.1983 33.76 66.5823 33.9093 66.881 34.208C67.1797 34.5067 67.329 34.8907 67.329 35.36V54.304ZM105.935 68C105.508 68 105.124 67.8507 104.783 67.552C104.484 67.2107 104.335 66.8267 104.335 66.4V35.36C104.335 34.8907 104.484 34.5067 104.783 34.208C105.124 33.9093 105.508 33.76 105.935 33.76H117.199C120.015 33.76 122.639 34.4853 125.071 35.936C127.545 37.3867 129.529 39.392 131.023 41.952C132.559 44.512 133.326 47.4773 133.326 50.848C133.326 54.048 132.644 56.9493 131.279 59.552C129.956 62.112 128.079 64.16 125.647 65.696C123.257 67.232 120.441 68 117.199 68H105.935ZM107.535 36.96V64.8H117.199C119.844 64.8 122.127 64.1813 124.047 62.944C126.009 61.664 127.503 59.9787 128.527 57.888C129.593 55.7547 130.127 53.408 130.127 50.848C130.127 48.16 129.529 45.7707 128.335 43.68C127.14 41.5893 125.561 39.9467 123.599 38.752C121.636 37.5573 119.503 36.96 117.199 36.96H107.535Z" fill="black"/>
<path d="M48.68 37.984L48.2954 38.9071L48.3081 38.9124L48.321 38.9173L48.68 37.984ZM45.288 36.96L45.0785 37.9378L45.0854 37.9393L45.288 36.96ZM35.368 38.24L36.0082 39.0082L36.0156 39.002L36.0229 38.9957L35.368 38.24ZM35.24 45.6L35.9205 44.8672L35.9205 44.8672L35.24 45.6ZM42.216 48.48L41.9876 49.4536L41.9991 49.4562L42.216 48.48ZM49.32 51.104L48.7803 51.9459L48.79 51.952L49.32 51.104ZM52.904 54.752L52.0095 55.1992L52.0154 55.2106L52.904 54.752ZM52.712 63.712L51.839 63.2242L51.8341 63.2331L52.712 63.712ZM48.872 67.232L49.3279 68.1221L49.336 68.1178L48.872 67.232ZM30.248 65.632L29.7239 66.4837L29.7433 66.4956L29.7633 66.5067L30.248 65.632ZM31.784 62.816L32.2748 61.9448L32.2533 61.9326L32.2312 61.9216L31.784 62.816ZM48.424 63.584L49.0487 64.3649L49.0513 64.3628L48.424 63.584ZM48.552 54.688L47.905 55.4505L47.9106 55.4553L47.9163 55.4599L48.552 54.688ZM41.576 51.68L41.3303 52.6493L41.3335 52.6501L41.576 51.68ZM34.536 49.056L34.0182 49.9116L34.028 49.9174L34.536 49.056ZM31.144 45.728L30.2434 46.1627L30.2494 46.1752L30.2558 46.1874L31.144 45.728ZM31.4 37.728L30.5551 37.1929L30.5504 37.2006L31.4 37.728ZM34.92 34.592L34.4532 33.7076L34.4532 33.7076L34.92 34.592ZM46.184 33.952L45.9209 34.9168L45.9378 34.9214L45.955 34.9254L46.184 33.952ZM50.728 35.424L50.3523 36.3507L50.3645 36.3557L50.3769 36.3603L50.728 35.424ZM49.768 38.432L49.3208 39.3264L49.419 39.3755L49.5255 39.4021L49.768 38.432ZM49.0646 37.0609C47.9744 36.6067 46.7818 36.2479 45.4906 35.9807L45.0854 37.9393C46.2688 38.1841 47.3376 38.508 48.2954 38.9071L49.0646 37.0609ZM45.4975 35.9822C44.2054 35.7053 42.5482 35.576 40.552 35.576V37.576C42.4811 37.576 43.9812 37.7027 45.0785 37.9378L45.4975 35.9822ZM40.552 35.576C38.2056 35.576 36.2217 36.1768 34.7131 37.4843L36.0229 38.9957C37.0743 38.0845 38.5464 37.576 40.552 37.576V35.576ZM34.7278 37.4718C33.2749 38.6825 32.448 40.1609 32.448 41.888H34.448C34.448 40.8844 34.9011 39.9308 36.0082 39.0082L34.7278 37.4718ZM32.448 41.888C32.448 43.585 33.204 45.0741 34.5595 46.3328L35.9205 44.8672C34.8867 43.9073 34.448 42.9217 34.448 41.888H32.448ZM34.5595 46.3328C35.962 47.635 38.518 48.6397 41.9876 49.4536L42.4444 47.5064C39.002 46.6989 36.9074 45.7836 35.9205 44.8672L34.5595 46.3328ZM41.9991 49.4562C45.0161 50.1266 47.2561 50.9688 48.7803 51.9459L49.8597 50.2621C48.0559 49.1059 45.5599 48.1987 42.4329 47.5038L41.9991 49.4562ZM48.79 51.952C50.3891 52.9514 51.4315 54.043 52.0096 55.1992L53.7984 54.3048C53.0112 52.7303 51.6642 51.3899 49.85 50.256L48.79 51.952ZM52.0154 55.2106C52.6185 56.3791 52.928 57.6917 52.928 59.168H54.928C54.928 57.4016 54.5549 55.7702 53.7926 54.2934L52.0154 55.2106ZM52.928 59.168C52.928 60.5668 52.571 61.9145 51.8391 63.2242L53.5849 64.1998C54.4744 62.6082 54.928 60.9265 54.928 59.168H52.928ZM51.8341 63.2331C51.1828 64.4272 50.0706 65.4753 48.408 66.3462L49.336 68.1178C51.2574 67.1114 52.7052 65.8128 53.5899 64.1909L51.8341 63.2331ZM48.4161 66.342C46.8607 67.1387 44.6899 67.576 41.832 67.576V69.576C44.8621 69.576 47.3847 69.1173 49.3279 68.122L48.4161 66.342ZM41.832 67.576C37.8145 67.576 34.1208 66.635 30.7327 64.7573L29.7633 66.5067C33.4579 68.5543 37.4868 69.576 41.832 69.576V67.576ZM30.7721 64.7803C30.4811 64.6013 30.416 64.438 30.416 64.224H28.416C28.416 65.2047 28.9056 65.9801 29.7239 66.4837L30.7721 64.7803ZM30.416 64.224C30.416 64.1248 30.4469 63.9884 30.6166 63.7945L29.1114 62.4775C28.6837 62.9663 28.416 63.5552 28.416 64.224H30.416ZM30.6166 63.7945C30.7179 63.6787 30.8236 63.624 31.016 63.624V61.624C30.2698 61.624 29.6074 61.9107 29.1114 62.4775L30.6166 63.7945ZM31.016 63.624C31.0992 63.624 31.2031 63.6436 31.3368 63.7104L32.2312 61.9216C31.8529 61.7324 31.4448 61.624 31.016 61.624V63.624ZM31.2932 63.6872C34.4807 65.483 38.0006 66.376 41.832 66.376V64.376C38.3248 64.376 35.146 63.5623 32.2748 61.9448L31.2932 63.6872ZM41.832 66.376C44.8484 66.376 47.3069 65.7583 49.0487 64.3649L47.7993 62.8031C46.5545 63.799 44.6182 64.376 41.832 64.376V66.376ZM49.0513 64.3628C50.7818 62.9688 51.728 61.2265 51.728 59.168H49.728C49.728 60.5229 49.1382 61.7246 47.7967 62.8052L49.0513 64.3628ZM51.728 59.168C51.728 57.0608 50.8561 55.2901 49.1877 53.9161L47.9163 55.4599C49.1492 56.4753 49.728 57.6912 49.728 59.168H51.728ZM49.199 53.9255C47.6139 52.5806 45.1081 51.5323 41.8185 50.7099L41.3335 52.6501C44.5292 53.4491 46.6741 54.4061 47.905 55.4505L49.199 53.9255ZM41.8217 50.7107C38.8352 49.9535 36.5916 49.1073 35.044 48.1946L34.028 49.9174C35.8084 50.9674 38.2581 51.8705 41.3303 52.6493L41.8217 50.7107ZM35.0538 48.2005C33.5352 47.2814 32.5623 46.2934 32.0322 45.2686L30.2558 46.1874C31.0057 47.6372 32.2941 48.868 34.0182 49.9115L35.0538 48.2005ZM32.0446 45.2932C31.5182 44.203 31.248 42.9881 31.248 41.632H29.248C29.248 43.2626 29.5751 44.7783 30.2434 46.1627L32.0446 45.2932ZM31.248 41.632C31.248 40.4656 31.5731 39.3454 32.2496 38.2554L30.5504 37.2006C29.6909 38.5853 29.248 40.0678 29.248 41.632H31.248ZM32.2448 38.2631C32.9492 37.1509 33.9822 36.2177 35.3868 35.4764L34.4532 33.7076C32.7858 34.5876 31.4722 35.7451 30.5552 37.1929L32.2448 38.2631ZM35.3868 35.4764C36.7445 34.7598 38.4521 34.376 40.552 34.376V32.376C38.2146 32.376 36.1675 32.8029 34.4532 33.7076L35.3868 35.4764ZM40.552 34.376C42.8567 34.376 44.6344 34.5659 45.9209 34.9168L46.4471 32.9872C44.9176 32.5701 42.9407 32.376 40.552 32.376V34.376ZM45.955 34.9254C47.3491 35.2535 48.8146 35.7274 50.3523 36.3507L51.1037 34.4973C49.484 33.8406 47.9202 33.3332 46.413 32.9786L45.955 34.9254ZM50.3769 36.3603C50.5705 36.4329 50.6437 36.5099 50.6751 36.5551C50.7062 36.5998 50.752 36.6932 50.752 36.896H52.752C52.752 36.3734 52.6271 35.8589 52.3169 35.4129C52.007 34.9674 51.5682 34.6711 51.0791 34.4877L50.3769 36.3603ZM50.752 36.896C50.752 37.0218 50.7135 37.1602 50.5329 37.3409L51.9471 38.7551C52.4491 38.2531 52.752 37.6236 52.752 36.896H50.752ZM50.5329 37.3409C50.4239 37.4499 50.3165 37.496 50.152 37.496V39.496C50.8409 39.496 51.4588 39.2434 51.9471 38.7551L50.5329 37.3409ZM50.152 37.496C50.171 37.496 50.1811 37.4971 50.1795 37.497C50.1785 37.4969 50.1712 37.4961 50.1564 37.4936C50.126 37.4885 50.0784 37.4788 50.0105 37.4619L49.5255 39.4021C49.7102 39.4483 49.9375 39.496 50.152 39.496V37.496ZM50.2152 37.5376C49.9938 37.4269 49.5848 37.2606 49.039 37.0507L48.321 38.9173C48.8845 39.1341 49.2009 39.2665 49.3208 39.3264L50.2152 37.5376ZM70.337 62.496L69.6454 63.2183L69.6531 63.2255L70.337 62.496ZM86.401 62.496L85.6939 61.7889L85.6939 61.7889L86.401 62.496ZM89.793 34.208L89.1345 33.4554L89.1094 33.4773L89.0859 33.5009L89.793 34.208ZM92.097 34.208L91.3899 34.9151L91.3899 34.9151L92.097 34.208ZM88.769 64.864L88.0619 64.1569L88.0619 64.1569L88.769 64.864ZM68.033 64.864L67.3439 65.5887L67.3498 65.5943L68.033 64.864ZM64.577 34.208L63.9185 33.4554L63.8934 33.4773L63.8699 33.5009L64.577 34.208ZM66.881 34.208L66.1739 34.9151L66.1739 34.9151L66.881 34.208ZM66.329 54.304C66.329 58.0387 67.3923 61.061 69.6454 63.2183L71.0286 61.7737C69.2711 60.091 68.329 57.652 68.329 54.304H66.329ZM69.6531 63.2255C71.9126 65.3438 74.7932 66.376 78.209 66.376V64.376C75.2248 64.376 72.8574 63.4882 71.0209 61.7665L69.6531 63.2255ZM78.209 66.376C81.9315 66.376 84.9485 65.3627 87.1081 63.2031L85.6939 61.7889C84.0135 63.4693 81.5691 64.376 78.209 64.376V66.376ZM87.1081 63.2031C89.3107 61.0005 90.345 57.9193 90.345 54.112H88.345C88.345 57.5581 87.4166 60.0661 85.6939 61.7889L87.1081 63.2031ZM90.345 54.112V35.36H88.345V54.112H90.345ZM90.345 35.36C90.345 35.1236 90.4106 35.0046 90.5001 34.9151L89.0859 33.5009C88.578 34.0088 88.345 34.6577 88.345 35.36H90.345ZM90.4515 34.9606C90.623 34.8105 90.7767 34.76 90.945 34.76V32.76C90.26 32.76 89.6456 33.0082 89.1345 33.4554L90.4515 34.9606ZM90.945 34.76C91.1814 34.76 91.3004 34.8256 91.3899 34.9151L92.8041 33.5009C92.2962 32.993 91.6473 32.76 90.945 32.76V34.76ZM91.3899 34.9151C91.4794 35.0046 91.545 35.1236 91.545 35.36H93.545C93.545 34.6577 93.312 34.0088 92.8041 33.5009L91.3899 34.9151ZM91.545 35.36V54.112H93.545V35.36H91.545ZM91.545 54.112C91.545 58.582 90.3394 61.8794 88.0619 64.1569L89.4761 65.5711C92.2333 62.8139 93.545 58.9433 93.545 54.112H91.545ZM88.0619 64.1569C85.8269 66.3919 82.5932 67.576 78.209 67.576V69.576C82.9555 69.576 86.7618 68.2854 89.4761 65.5711L88.0619 64.1569ZM78.209 67.576C74.2851 67.576 71.1497 66.4102 68.7162 64.1337L67.3498 65.5943C70.207 68.2671 73.8555 69.576 78.209 69.576V67.576ZM68.7221 64.1393C66.3685 61.9015 65.129 58.674 65.129 54.304H63.129C63.129 59.0646 64.4921 62.8772 67.3439 65.5887L68.7221 64.1393ZM65.129 54.304V35.36H63.129V54.304H65.129ZM65.129 35.36C65.129 35.1236 65.1946 35.0046 65.2841 34.9151L63.8699 33.5009C63.362 34.0088 63.129 34.6577 63.129 35.36H65.129ZM65.2355 34.9606C65.407 34.8105 65.5607 34.76 65.729 34.76V32.76C65.044 32.76 64.4296 33.0082 63.9185 33.4554L65.2355 34.9606ZM65.729 34.76C65.9654 34.76 66.0844 34.8256 66.1739 34.9151L67.5881 33.5009C67.0802 32.993 66.4313 32.76 65.729 32.76V34.76ZM66.1739 34.9151C66.2634 35.0046 66.329 35.1236 66.329 35.36H68.329C68.329 34.6577 68.096 34.0088 67.5881 33.5009L66.1739 34.9151ZM66.329 35.36V54.304H68.329V35.36H66.329ZM104.783 67.552L104.03 68.2105L104.074 68.2607L104.124 68.3046L104.783 67.552ZM104.783 34.208L104.124 33.4554L104.099 33.4773L104.075 33.5009L104.783 34.208ZM125.071 35.936L124.558 36.7948L124.565 36.7987L125.071 35.936ZM131.023 41.952L130.159 42.4559L130.165 42.4665L131.023 41.952ZM131.279 59.552L130.393 59.0874L130.39 59.093L131.279 59.552ZM125.647 65.696L125.112 64.8505L125.106 64.8548L125.647 65.696ZM107.535 36.96V35.96H106.535V36.96H107.535ZM107.535 64.8H106.535V65.8H107.535V64.8ZM124.047 62.944L124.588 63.7846L124.593 63.7816L124.047 62.944ZM128.527 57.888L127.632 57.4408L127.628 57.4481L128.527 57.888ZM128.335 43.68L127.466 44.1761L127.466 44.1761L128.335 43.68ZM105.935 67C105.766 67 105.613 66.9495 105.441 66.7994L104.124 68.3046C104.635 68.7518 105.25 69 105.935 69V67ZM105.535 66.8935C105.385 66.722 105.335 66.5683 105.335 66.4H103.335C103.335 67.085 103.583 67.6994 104.03 68.2105L105.535 66.8935ZM105.335 66.4V35.36H103.335V66.4H105.335ZM105.335 35.36C105.335 35.1236 105.4 35.0046 105.49 34.9151L104.075 33.5009C103.568 34.0088 103.335 34.6577 103.335 35.36H105.335ZM105.441 34.9606C105.613 34.8105 105.766 34.76 105.935 34.76V32.76C105.25 32.76 104.635 33.0082 104.124 33.4554L105.441 34.9606ZM105.935 34.76H117.199V32.76H105.935V34.76ZM117.199 34.76C119.833 34.76 122.28 35.436 124.558 36.7948L125.583 35.0772C122.997 33.5347 120.196 32.76 117.199 32.76V34.76ZM124.565 36.7987C126.886 38.1595 128.749 40.0391 130.159 42.4559L131.886 41.4481C130.309 38.7449 128.204 36.6138 125.576 35.0733L124.565 36.7987ZM130.165 42.4665C131.596 44.8518 132.326 47.6347 132.326 50.848H134.326C134.326 47.32 133.521 44.1722 131.88 41.4375L130.165 42.4665ZM132.326 50.848C132.326 53.9009 131.677 56.6406 130.393 59.0875L132.164 60.0165C133.611 57.2581 134.326 54.1951 134.326 50.848H132.326ZM130.39 59.093C129.149 61.4952 127.394 63.4097 125.113 64.8505L126.18 66.5415C128.763 64.9103 130.763 62.7288 132.167 60.011L130.39 59.093ZM125.106 64.8548C122.9 66.273 120.277 67 117.199 67V69C120.605 69 123.615 68.191 126.187 66.5372L125.106 64.8548ZM117.199 67H105.935V69H117.199V67ZM106.535 36.96V64.8H108.535V36.96H106.535ZM107.535 65.8H117.199V63.8H107.535V65.8ZM117.199 65.8C120.005 65.8 122.482 65.1416 124.588 63.7846L123.505 62.1034C121.771 63.221 119.683 63.8 117.199 63.8V65.8ZM124.593 63.7816C126.705 62.4038 128.321 60.5815 129.425 58.3279L127.628 57.4481C126.684 59.3758 125.313 60.9242 123.5 62.1064L124.593 63.7816ZM129.421 58.3352C130.562 56.053 131.127 53.5516 131.127 50.848H129.127C129.127 53.2644 128.624 55.4564 127.632 57.4408L129.421 58.3352ZM131.127 50.848C131.127 48.0067 130.493 45.4426 129.203 43.1839L127.466 44.1761C128.565 46.0987 129.127 48.3133 129.127 50.848H131.127ZM129.203 43.1839C127.928 40.9536 126.233 39.1847 124.118 37.8978L123.079 39.6062C124.89 40.7086 126.351 42.2251 127.466 44.1761L129.203 43.1839ZM124.118 37.8978C121.999 36.6075 119.685 35.96 117.199 35.96V37.96C119.32 37.96 121.273 38.5072 123.079 39.6062L124.118 37.8978ZM117.199 35.96H107.535V37.96H117.199V35.96Z" fill="black"/>
<path d="M41.608 87.9208C44.6373 87.9208 47.3893 88.6675 49.864 90.1608C52.3813 91.6542 54.3653 93.7448 55.816 96.4328C57.3093 99.0782 58.056 102.15 58.056 105.649C58.056 108.977 57.3947 111.985 56.072 114.673C54.792 117.318 52.9147 119.43 50.44 121.009C48.008 122.545 45.064 123.313 41.608 123.313C38.3653 123.313 35.4853 122.545 32.968 121.009C30.4507 119.43 28.4667 117.318 27.016 114.673C25.608 112.028 24.904 109.084 24.904 105.841C24.904 102.257 25.608 99.1208 27.016 96.4328C28.424 93.7448 30.3653 91.6542 32.84 90.1608C35.3573 88.6675 38.28 87.9208 41.608 87.9208ZM41.608 91.1208C38.92 91.1208 36.552 91.7608 34.504 93.0408C32.4987 94.2782 30.92 96.0062 29.768 98.2248C28.6587 100.401 28.104 102.94 28.104 105.841C28.104 108.444 28.6587 110.833 29.768 113.009C30.92 115.185 32.52 116.913 34.568 118.193C36.616 119.473 38.9627 120.113 41.608 120.113C44.424 120.113 46.8133 119.473 48.776 118.193C50.7813 116.913 52.296 115.185 53.32 113.009C54.344 110.79 54.856 108.337 54.856 105.649C54.856 102.833 54.2587 100.337 53.064 98.1608C51.912 95.9848 50.3333 94.2782 48.328 93.0408C46.3227 91.7608 44.0827 91.1208 41.608 91.1208ZM92.5935 122.737C92.1242 122.737 91.7188 122.545 91.3775 122.161C90.5668 121.222 89.5642 120.07 88.3695 118.705C87.2175 117.297 85.9802 115.804 84.6575 114.225C83.3775 112.646 82.0975 111.11 80.8175 109.617C79.5802 108.081 78.4708 106.716 77.4895 105.521C76.2095 106.716 75.0362 107.804 73.9695 108.785C72.9028 109.724 72.0495 110.492 71.4095 111.089V121.137C71.4095 121.564 71.2602 121.948 70.9615 122.289C70.6628 122.588 70.2788 122.737 69.8095 122.737C69.3828 122.737 68.9988 122.588 68.6575 122.289C68.3588 121.948 68.2095 121.564 68.2095 121.137V90.0968C68.2095 89.6275 68.3588 89.2435 68.6575 88.9448C68.9988 88.6462 69.3828 88.4968 69.8095 88.4968C70.2788 88.4968 70.6628 88.6462 70.9615 88.9448C71.2602 89.2435 71.4095 89.6275 71.4095 90.0968V106.801C72.6042 105.692 73.9908 104.412 75.5695 102.961C77.1908 101.468 78.8762 99.9102 80.6255 98.2888C82.3748 96.6248 84.0815 95.0035 85.7455 93.4248C87.4095 91.8035 88.8815 90.3315 90.1615 89.0088C90.5028 88.6675 90.8868 88.4968 91.3135 88.4968C91.7402 88.4968 92.1028 88.6675 92.4015 89.0088C92.7428 89.3075 92.9135 89.6702 92.9135 90.0968C92.9135 90.4382 92.7642 90.8008 92.4655 91.1848C90.8015 92.9342 88.8175 94.9182 86.5135 97.1368C84.2522 99.3128 82.0335 101.404 79.8575 103.409C80.8388 104.561 81.9482 105.905 83.1855 107.441C84.4655 108.977 85.7668 110.534 87.0895 112.113C88.4122 113.692 89.6495 115.185 90.8015 116.593C91.9962 118.001 92.9988 119.174 93.8095 120.113C94.0655 120.369 94.1935 120.71 94.1935 121.137C94.1935 121.521 94.0442 121.884 93.7455 122.225C93.4468 122.566 93.0628 122.737 92.5935 122.737ZM106.267 109.041C106.267 112.582 107.269 115.313 109.275 117.233C111.323 119.153 113.947 120.113 117.147 120.113C120.688 120.113 123.419 119.153 125.339 117.233C127.301 115.27 128.283 112.476 128.283 108.849V90.0968C128.283 89.6275 128.432 89.2435 128.731 88.9448C129.072 88.6462 129.456 88.4968 129.882 88.4968C130.352 88.4968 130.736 88.6462 131.035 88.9448C131.333 89.2435 131.483 89.6275 131.483 90.0968V108.849C131.483 113.5 130.224 117.084 127.707 119.601C125.232 122.076 121.712 123.313 117.147 123.313C113.008 123.313 109.616 122.076 106.97 119.601C104.368 117.126 103.067 113.606 103.067 109.041V90.0968C103.067 89.6275 103.216 89.2435 103.515 88.9448C103.856 88.6462 104.24 88.4968 104.667 88.4968C105.136 88.4968 105.52 88.6462 105.819 88.9448C106.117 89.2435 106.267 89.6275 106.267 90.0968V109.041Z" fill="black"/>
<path d="M49.864 90.1608L49.3473 91.0171L49.3538 91.0209L49.864 90.1608ZM55.816 96.4328L54.936 96.9078L54.9405 96.9162L54.9452 96.9244L55.816 96.4328ZM56.072 114.673L55.1747 114.231L55.1718 114.237L56.072 114.673ZM50.44 121.009L50.974 121.854L50.9778 121.852L50.44 121.009ZM32.968 121.009L32.4367 121.856L32.4471 121.862L32.968 121.009ZM27.016 114.673L26.1332 115.143L26.1392 115.154L27.016 114.673ZM27.016 96.4328L27.9018 96.8969L27.9018 96.8969L27.016 96.4328ZM32.84 90.1608L32.3298 89.3008L32.3233 89.3047L32.84 90.1608ZM34.504 93.0408L35.0291 93.8919L35.034 93.8888L34.504 93.0408ZM29.768 98.2248L28.8805 97.764L28.8771 97.7707L29.768 98.2248ZM29.768 113.009L28.8771 113.463L28.8806 113.47L28.8842 113.477L29.768 113.009ZM48.776 118.193L48.2379 117.35L48.2297 117.355L48.776 118.193ZM53.32 113.009L54.2248 113.435L54.228 113.428L53.32 113.009ZM53.064 98.1608L52.1802 98.6287L52.1838 98.6354L52.1874 98.6421L53.064 98.1608ZM48.328 93.0408L47.79 93.8838L47.7964 93.8879L47.8029 93.8919L48.328 93.0408ZM41.608 88.9208C44.4644 88.9208 47.0362 89.6224 49.3473 91.017L50.3807 89.3047C47.7424 87.7126 44.8103 86.9208 41.608 86.9208V88.9208ZM49.3538 91.0209C51.7083 92.4176 53.5675 94.372 54.936 96.9078L56.696 95.9579C55.1632 93.1177 53.0544 90.8907 50.3742 89.3008L49.3538 91.0209ZM54.9452 96.9244C56.3417 99.3983 57.056 102.296 57.056 105.649H59.056C59.056 102.004 58.277 98.758 56.6868 95.9413L54.9452 96.9244ZM57.056 105.649C57.056 108.841 56.4226 111.695 55.1747 114.231L56.9693 115.114C58.3667 112.274 59.056 109.113 59.056 105.649H57.056ZM55.1718 114.237C53.9724 116.716 52.2205 118.687 49.9022 120.166L50.9778 121.852C53.6089 120.173 55.6116 117.92 56.9722 115.108L55.1718 114.237ZM49.906 120.163C47.6635 121.58 44.9134 122.313 41.608 122.313V124.313C45.2146 124.313 48.3525 123.51 50.974 121.854L49.906 120.163ZM41.608 122.313C38.5302 122.313 35.8339 121.586 33.4889 120.155L32.4471 121.862C35.1367 123.504 38.2005 124.313 41.608 124.313V122.313ZM33.4993 120.162C31.1288 118.675 29.2628 116.69 27.8928 114.192L26.1392 115.154C27.6706 117.946 29.7725 120.185 32.4367 121.856L33.4993 120.162ZM27.8987 114.203C26.574 111.714 25.904 108.933 25.904 105.841H23.904C23.904 109.234 24.642 112.341 26.1333 115.143L27.8987 114.203ZM25.904 105.841C25.904 102.389 26.5813 99.4179 27.9018 96.8969L26.1302 95.9688C24.6347 98.8238 23.904 102.124 23.904 105.841H25.904ZM27.9018 96.8969C29.2294 94.3624 31.0466 92.4111 33.3567 91.017L32.3233 89.3047C29.6841 90.8973 27.6186 93.1273 26.1302 95.9688L27.9018 96.8969ZM33.3502 91.0209C35.6929 89.6312 38.4345 88.9208 41.608 88.9208V86.9208C38.1255 86.9208 35.0218 87.7038 32.3298 89.3008L33.3502 91.0209ZM41.608 90.1208C38.7544 90.1208 36.1985 90.8025 33.974 92.1928L35.034 93.8888C36.9055 92.7191 39.0856 92.1208 41.608 92.1208V90.1208ZM33.9789 92.1898C31.8102 93.5279 30.1105 95.3951 28.8805 97.764L30.6555 98.6857C31.7295 96.6173 33.1871 95.0284 35.0291 93.8919L33.9789 92.1898ZM28.8771 97.7707C27.6838 100.111 27.104 102.811 27.104 105.841H29.104C29.104 103.068 29.6336 100.69 30.6589 98.679L28.8771 97.7707ZM27.104 105.841C27.104 108.591 27.6914 111.137 28.8771 113.463L30.6589 112.555C29.626 110.528 29.104 108.296 29.104 105.841H27.104ZM28.8842 113.477C30.1169 115.805 31.8376 117.666 34.038 119.041L35.098 117.345C33.2024 116.16 31.7231 114.564 30.6518 112.541L28.8842 113.477ZM34.038 119.041C36.2599 120.43 38.7938 121.113 41.608 121.113V119.113C39.1316 119.113 36.9721 118.516 35.098 117.345L34.038 119.041ZM41.608 121.113C44.5784 121.113 47.1668 120.436 49.3223 119.03L48.2297 117.355C46.4598 118.51 44.2696 119.113 41.608 119.113V121.113ZM49.314 119.036C51.4804 117.653 53.1213 115.78 54.2248 113.435L52.4152 112.583C51.4707 114.59 50.0823 116.173 48.238 117.35L49.314 119.036ZM54.228 113.428C55.3184 111.065 55.856 108.467 55.856 105.649H53.856C53.856 108.207 53.3696 110.515 52.412 112.59L54.228 113.428ZM55.856 105.649C55.856 102.688 55.2266 100.022 53.9406 97.6796L52.1874 98.6421C53.2908 100.652 53.856 102.978 53.856 105.649H55.856ZM53.9478 97.693C52.7164 95.367 51.0169 93.5249 48.8531 92.1898L47.8029 93.8919C49.6497 95.0314 51.1076 96.6027 52.1802 98.6287L53.9478 97.693ZM48.866 92.1979C46.6933 90.8111 44.2653 90.1208 41.608 90.1208V92.1208C43.9001 92.1208 45.952 92.7106 47.79 93.8838L48.866 92.1979ZM91.3775 122.161L90.6207 122.814L90.6253 122.82L90.6301 122.825L91.3775 122.161ZM88.3695 118.705L87.5955 119.338L87.606 119.351L87.6169 119.363L88.3695 118.705ZM84.6575 114.225L83.8807 114.855L83.8858 114.861L83.891 114.867L84.6575 114.225ZM80.8175 109.617L80.0387 110.244L80.0483 110.256L80.0582 110.268L80.8175 109.617ZM77.4895 105.521L78.2622 104.886L77.586 104.063L76.8072 104.79L77.4895 105.521ZM73.9695 108.785L74.6301 109.536L74.6384 109.528L74.6466 109.521L73.9695 108.785ZM71.4095 111.089L70.7272 110.358L70.4095 110.654V111.089H71.4095ZM70.9615 122.289L71.6686 122.996L71.6922 122.972L71.7141 122.947L70.9615 122.289ZM68.6575 122.289L67.9049 122.947L67.9488 122.998L67.999 123.041L68.6575 122.289ZM68.6575 88.9448L67.999 88.1923L67.9739 88.2142L67.9504 88.2377L68.6575 88.9448ZM70.9615 88.9448L70.2544 89.652L70.2544 89.652L70.9615 88.9448ZM71.4095 106.801H70.4095V109.094L72.09 107.534L71.4095 106.801ZM75.5695 102.961L76.2461 103.697L76.247 103.696L75.5695 102.961ZM80.6255 98.2888L81.3053 99.0223L81.3147 99.0134L80.6255 98.2888ZM85.7455 93.4248L86.4338 94.1504L86.4434 94.1411L85.7455 93.4248ZM90.1615 89.0088L89.4544 88.3017L89.4486 88.3075L89.4429 88.3134L90.1615 89.0088ZM92.4015 89.0088L91.6489 89.6674L91.6928 89.7175L91.743 89.7614L92.4015 89.0088ZM92.4655 91.1848L93.1901 91.8741L93.2243 91.838L93.2549 91.7988L92.4655 91.1848ZM86.5135 97.1368L87.2069 97.8574L87.2071 97.8572L86.5135 97.1368ZM79.8575 103.409L79.1798 102.673L78.4726 103.325L79.0963 104.057L79.8575 103.409ZM83.1855 107.441L82.4067 108.068L82.412 108.075L82.4173 108.081L83.1855 107.441ZM87.0895 112.113L86.323 112.755L86.323 112.755L87.0895 112.113ZM90.8015 116.593L90.0275 117.226L90.0332 117.233L90.039 117.24L90.8015 116.593ZM93.8095 120.113L93.0527 120.766L93.0766 120.794L93.1024 120.82L93.8095 120.113ZM93.7455 122.225L94.4981 122.883L93.7455 122.225ZM92.5935 121.737C92.4388 121.737 92.2966 121.69 92.1249 121.496L90.6301 122.825C91.141 123.4 91.8095 123.737 92.5935 123.737V121.737ZM92.1343 121.507C91.3218 120.566 90.3176 119.413 89.1221 118.046L87.6169 119.363C88.8108 120.728 89.8119 121.878 90.6207 122.814L92.1343 121.507ZM89.1435 118.072C87.9887 116.66 86.7489 115.164 85.424 113.583L83.891 114.867C85.2115 116.443 86.4463 117.933 87.5955 119.338L89.1435 118.072ZM85.4343 113.595C84.1487 112.01 82.8629 110.467 81.5768 108.966L80.0582 110.268C81.3321 111.754 82.6063 113.283 83.8807 114.855L85.4343 113.595ZM81.5963 108.99C80.3574 107.452 79.246 106.084 78.2622 104.886L76.7168 106.156C77.6956 107.347 78.8029 108.71 80.0387 110.244L81.5963 108.99ZM76.8072 104.79C75.5286 105.983 74.357 107.069 73.2924 108.049L74.6466 109.521C75.7153 108.538 76.8904 107.448 78.1718 106.252L76.8072 104.79ZM73.3089 108.034C72.2388 108.976 71.3773 109.751 70.7272 110.358L72.0918 111.82C72.7217 111.232 73.5669 110.471 74.6301 109.536L73.3089 108.034ZM70.4095 111.089V121.137H72.4095V111.089H70.4095ZM70.4095 121.137C70.4095 121.305 70.359 121.459 70.2089 121.63L71.7141 122.947C72.1613 122.436 72.4095 121.822 72.4095 121.137H70.4095ZM70.2544 121.582C70.1649 121.671 70.0459 121.737 69.8095 121.737V123.737C70.5118 123.737 71.1607 123.504 71.6686 122.996L70.2544 121.582ZM69.8095 121.737C69.6412 121.737 69.4875 121.686 69.316 121.536L67.999 123.041C68.5101 123.489 69.1245 123.737 69.8095 123.737V121.737ZM69.4101 121.63C69.26 121.459 69.2095 121.305 69.2095 121.137H67.2095C67.2095 121.822 67.4577 122.436 67.9049 122.947L69.4101 121.63ZM69.2095 121.137V90.0968H67.2095V121.137H69.2095ZM69.2095 90.0968C69.2095 89.8604 69.2751 89.7414 69.3646 89.652L67.9504 88.2377C67.4425 88.7456 67.2095 89.3946 67.2095 90.0968H69.2095ZM69.316 89.6974C69.4875 89.5473 69.6412 89.4968 69.8095 89.4968V87.4968C69.1245 87.4968 68.5101 87.745 67.999 88.1923L69.316 89.6974ZM69.8095 89.4968C70.0459 89.4968 70.1649 89.5625 70.2544 89.652L71.6686 88.2377C71.1607 87.7299 70.5118 87.4968 69.8095 87.4968V89.4968ZM70.2544 89.652C70.3439 89.7414 70.4095 89.8604 70.4095 90.0968H72.4095C72.4095 89.3946 72.1765 88.7456 71.6686 88.2377L70.2544 89.652ZM70.4095 90.0968V106.801H72.4095V90.0968H70.4095ZM72.09 107.534C73.283 106.426 74.6684 105.147 76.2461 103.697L74.8929 102.225C73.3133 103.676 71.9253 104.957 70.729 106.068L72.09 107.534ZM76.247 103.696C77.8691 102.202 79.5552 100.644 81.3053 99.0223L79.9457 97.5554C78.1971 99.1761 76.5125 100.733 74.892 102.225L76.247 103.696ZM81.3147 99.0134C83.0637 97.3497 84.7701 95.7287 86.4338 94.1503L85.0572 92.6994C83.3929 94.2784 81.6859 95.9 79.9363 97.5643L81.3147 99.0134ZM86.4434 94.1411C88.1127 92.5146 89.5918 91.0355 90.8801 89.7043L89.4429 88.3134C88.1712 89.6275 86.7063 91.0924 85.0476 92.7086L86.4434 94.1411ZM90.8686 89.716C91.0493 89.5353 91.1878 89.4968 91.3135 89.4968V87.4968C90.5859 87.4968 89.9564 87.7997 89.4544 88.3017L90.8686 89.716ZM91.3135 89.4968C91.4318 89.4968 91.5266 89.5275 91.6489 89.6674L93.1541 88.3503C92.6791 87.8075 92.0485 87.4968 91.3135 87.4968V89.4968ZM91.743 89.7614C91.8828 89.8838 91.9135 89.9785 91.9135 90.0968H93.9135C93.9135 89.3618 93.6028 88.7313 93.06 88.2563L91.743 89.7614ZM91.9135 90.0968C91.9135 90.1386 91.8948 90.2898 91.6761 90.5709L93.2549 91.7988C93.6335 91.3119 93.9135 90.7378 93.9135 90.0968H91.9135ZM91.7409 90.4956C90.0896 92.2316 88.1165 94.205 85.8199 96.4165L87.2071 97.8572C89.5185 95.6314 91.5134 93.6367 93.1901 91.8741L91.7409 90.4956ZM85.8201 96.4163C83.5637 98.5876 81.3502 100.673 79.1798 102.673L80.5352 104.144C82.7168 102.134 84.9407 100.038 87.2069 97.8574L85.8201 96.4163ZM79.0963 104.057C80.0702 105.201 81.1735 106.537 82.4067 108.068L83.9643 106.814C82.7228 105.272 81.6075 103.921 80.6187 102.76L79.0963 104.057ZM82.4173 108.081C83.6979 109.618 84.9998 111.176 86.323 112.755L87.856 111.471C86.5339 109.893 85.2331 108.336 83.9537 106.801L82.4173 108.081ZM86.323 112.755C87.6435 114.331 88.8783 115.821 90.0275 117.226L91.5755 115.96C90.4207 114.548 89.1809 113.052 87.856 111.471L86.323 112.755ZM90.039 117.24C91.2347 118.649 92.2394 119.825 93.0527 120.766L94.5663 119.459C93.7582 118.524 92.7576 117.353 91.564 115.946L90.039 117.24ZM93.1024 120.82C93.1377 120.855 93.1935 120.924 93.1935 121.137H95.1935C95.1935 120.496 94.9933 119.882 94.5166 119.406L93.1024 120.82ZM93.1935 121.137C93.1935 121.236 93.1626 121.372 92.9929 121.566L94.4981 122.883C94.9258 122.395 95.1935 121.806 95.1935 121.137H93.1935ZM92.9929 121.566C92.8916 121.682 92.7859 121.737 92.5935 121.737V123.737C93.3397 123.737 94.0021 123.45 94.4981 122.883L92.9929 121.566ZM109.275 117.233L108.583 117.955L108.591 117.962L109.275 117.233ZM125.339 117.233L124.631 116.526L124.631 116.526L125.339 117.233ZM128.731 88.9448L128.072 88.1923L128.047 88.2142L128.023 88.2377L128.731 88.9448ZM131.035 88.9448L130.327 89.652L130.327 89.652L131.035 88.9448ZM127.707 119.601L126.999 118.894L126.999 118.894L127.707 119.601ZM106.97 119.601L106.281 120.326L106.287 120.331L106.97 119.601ZM103.515 88.9448L102.856 88.1923L102.831 88.2142L102.807 88.2377L103.515 88.9448ZM105.819 88.9448L105.111 89.652L105.111 89.652L105.819 88.9448ZM105.267 109.041C105.267 112.776 106.33 115.798 108.583 117.955L109.966 116.511C108.209 114.828 107.267 112.389 107.267 109.041H105.267ZM108.591 117.962C110.85 120.081 113.731 121.113 117.147 121.113V119.113C114.162 119.113 111.795 118.225 109.958 116.503L108.591 117.962ZM117.147 121.113C120.869 121.113 123.886 120.1 126.046 117.94L124.631 116.526C122.951 118.206 120.507 119.113 117.147 119.113V121.113ZM126.046 117.94C128.248 115.737 129.283 112.656 129.283 108.849H127.283C127.283 112.295 126.354 114.803 124.631 116.526L126.046 117.94ZM129.283 108.849V90.0968H127.283V108.849H129.283ZM129.283 90.0968C129.283 89.8604 129.348 89.7414 129.438 89.652L128.023 88.2377C127.516 88.7456 127.283 89.3946 127.283 90.0968H129.283ZM129.389 89.6974C129.561 89.5473 129.714 89.4968 129.882 89.4968V87.4968C129.198 87.4968 128.583 87.745 128.072 88.1923L129.389 89.6974ZM129.882 89.4968C130.119 89.4968 130.238 89.5625 130.327 89.652L131.742 88.2377C131.234 87.7299 130.585 87.4968 129.882 87.4968V89.4968ZM130.327 89.652C130.417 89.7414 130.483 89.8604 130.483 90.0968H132.483C132.483 89.3946 132.249 88.7456 131.742 88.2377L130.327 89.652ZM130.483 90.0968V108.849H132.483V90.0968H130.483ZM130.483 108.849C130.483 113.319 129.277 116.616 126.999 118.894L128.414 120.308C131.171 117.551 132.483 113.68 132.483 108.849H130.483ZM126.999 118.894C124.764 121.129 121.531 122.313 117.147 122.313V124.313C121.893 124.313 125.699 123.022 128.414 120.308L126.999 118.894ZM117.147 122.313C113.223 122.313 110.087 121.147 107.654 118.871L106.287 120.331C109.145 123.004 112.793 124.313 117.147 124.313V122.313ZM107.66 118.876C105.306 116.638 104.067 113.411 104.067 109.041H102.067C102.067 113.801 103.43 117.614 106.281 120.326L107.66 118.876ZM104.067 109.041V90.0968H102.067V109.041H104.067ZM104.067 90.0968C104.067 89.8604 104.132 89.7414 104.222 89.652L102.807 88.2377C102.3 88.7456 102.067 89.3946 102.067 90.0968H104.067ZM104.173 89.6974C104.345 89.5473 104.498 89.4968 104.667 89.4968V87.4968C103.982 87.4968 103.367 87.745 102.856 88.1923L104.173 89.6974ZM104.667 89.4968C104.903 89.4968 105.022 89.5625 105.111 89.652L106.526 88.2377C106.018 87.7299 105.369 87.4968 104.667 87.4968V89.4968ZM105.111 89.652C105.201 89.7414 105.267 89.8604 105.267 90.0968H107.267C107.267 89.3946 107.033 88.7456 106.526 88.2377L105.111 89.652ZM105.267 90.0968V109.041H107.267V90.0968H105.267Z" fill="black"/>
<path d="M2 116V143C2 148.523 6.47715 153 12 153H147C152.523 153 157 148.523 157 143V12C157 6.47715 152.523 2 147 2H12C6.47715 2 2 6.47715 2 12V92" stroke="black" stroke-width="6" stroke-linecap="round"/>
</g>
<defs>
<clipPath id="clip0_1_14">
<rect width="158" height="155" fill="white"/>
</clipPath>
</defs>
</svg>
