<?xml version="1.0" standalone="no"?>
<!DOCTYPE svg PUBLIC "-//W3C//DTD SVG 20010904//EN"
 "http://www.w3.org/TR/2001/REC-SVG-20010904/DTD/svg10.dtd">
<svg version="1.0" xmlns="http://www.w3.org/2000/svg"
 width="216.000000pt" height="196.000000pt" viewBox="0 0 216.000000 196.000000"
 preserveAspectRatio="xMidYMid meet">

<g transform="translate(0.000000,196.000000) scale(0.100000,-0.100000)"
fill="#000000" stroke="none">
<path d="M189 1911 c-42 -5 -77 -15 -96 -29 -57 -41 -58 -48 -58 -507 0 -231
3 -432 7 -446 12 -42 58 -49 73 -11 4 9 11 207 15 440 5 303 11 427 19 435 31
31 1852 30 1883 -1 10 -10 13 -170 13 -815 0 -760 -1 -804 -18 -831 l-18 -27
-919 3 c-857 3 -920 4 -937 20 -15 16 -18 49 -23 267 -6 259 -10 281 -50 281
-42 0 -45 -20 -45 -301 0 -255 1 -269 21 -295 11 -15 33 -37 48 -48 27 -20 43
-21 654 -29 658 -8 1240 -1 1282 15 14 5 44 27 66 50 l42 40 1 657 c1 711 -8
1020 -30 1066 -8 16 -32 38 -54 49 -40 21 -49 21 -925 22 -487 1 -915 -1 -951
-5z"/>
<path d="M475 1586 c-50 -22 -70 -52 -70 -106 0 -61 29 -95 122 -142 67 -35
87 -64 62 -94 -11 -14 -26 -15 -84 -10 -38 3 -80 9 -92 12 -21 6 -23 3 -23
-29 0 -45 17 -56 105 -64 113 -10 205 45 205 123 0 53 -13 68 -105 124 -136
82 -137 115 -3 116 67 0 83 3 94 19 21 28 13 39 -37 52 -59 15 -137 15 -174
-1z"/>
<path d="M802 1426 c3 -159 5 -177 24 -203 37 -50 80 -67 164 -68 64 0 82 4
122 28 26 15 53 38 60 50 8 15 12 77 13 192 l0 170 -47 3 -48 3 0 -144 c0
-200 -12 -227 -102 -227 -81 0 -91 22 -96 218 l-4 152 -45 0 -45 0 4 -174z"/>
<path d="M1320 1379 l0 -222 119 6 c146 6 196 25 238 88 39 59 46 175 14 237
-38 74 -139 112 -303 112 l-68 0 0 -221z m256 98 c30 -32 34 -43 34 -90 0 -99
-57 -157 -152 -157 l-48 0 0 146 0 146 66 -4 c62 -4 69 -7 100 -41z"/>
<path d="M974 846 c-2 -6 -3 -106 -2 -221 l3 -210 45 0 45 0 3 60 c3 91 9 107
35 103 14 -2 39 -29 73 -77 28 -41 60 -78 70 -82 19 -6 83 -3 91 5 2 2 -30 52
-72 111 -41 60 -75 112 -75 117 0 5 36 51 80 101 l79 92 -36 3 c-62 6 -79 -5
-159 -98 -42 -50 -79 -90 -83 -90 -4 0 -5 43 -3 95 4 94 4 95 -20 96 -12 1
-33 3 -46 4 -13 1 -26 -3 -28 -9z"/>
<path d="M1720 725 c0 -195 -16 -235 -96 -242 -89 -8 -103 24 -104 235 l0 132
-49 0 -49 0 -7 -50 c-4 -28 -4 -102 0 -166 6 -93 11 -121 29 -146 70 -104 224
-116 322 -26 l44 41 0 176 0 177 -45 -1 -45 0 0 -130z"/>
<path d="M515 831 c-77 -35 -109 -96 -109 -206 -1 -115 47 -183 144 -208 96
-25 204 -4 252 50 59 65 74 183 34 269 -38 81 -101 114 -215 114 -43 0 -80 -7
-106 -19z m185 -79 c36 -27 50 -60 50 -120 0 -76 -21 -119 -67 -139 -52 -21
-118 -8 -147 30 -28 38 -34 141 -11 190 30 65 115 83 175 39z"/>
</g>
</svg>
